<svg width="100" height="100" viewBox="0 0 100 100" fill="none" xmlns="http://www.w3.org/2000/svg">
<g clip-path="url(#clip0_1815_353)">
<path d="M94.3998 35.9999C92.4998 30.1999 88.3998 25.4999 84.6998 20.8999C81.3998 16.5999 77.8998 12.6999 73.8998 8.99992C63.7998 -8.10623e-05 51.7998 0.699919 41.4998 8.99992C32.6998 16.1999 24.4998 24.3999 15.9998 32.0999C11.3998 36.2999 5.79983 40.3999 3.99983 46.7999C2.09983 53.5999 4.99983 60.2999 7.89983 66.3999C8.39983 67.4999 8.99983 68.5999 9.59983 69.6999C18.1998 78.2999 25.1998 88.5999 34.1998 96.6999C34.9998 96.6999 35.7998 96.5999 36.5998 96.3999C37.7998 96.6999 39.0998 96.8999 40.3998 96.7999C47.1998 96.5999 53.1998 90.4999 58.2998 86.4999C66.4998 80.0999 74.2998 73.1999 81.6998 65.7999C89.6998 57.7999 98.2998 48.2999 94.3998 35.9999Z" fill="#FDB913"/>
<path d="M35.3 10.899C35.1 8.99903 33.7 6.79903 31.4 6.99903C20.3 7.99903 11 15.799 8.09995 26.599C6.79995 31.399 14.3 33.499 15.6 28.699C16 27.399 16.5 25.999 17.1 24.799C18.1 24.799 19 24.299 19.6 23.499C22.2 20.399 25.7 19.099 29.3 17.699C32.4 16.599 35.7 14.699 35.3 10.899Z" fill="#FDB913"/>
<path d="M62.6996 51.9996C62.6996 50.7996 62.5996 49.4996 62.1996 48.2996C60.8996 44.2996 57.1996 41.5996 53.0996 41.5996C49.0996 41.6996 45.6996 44.3996 44.7996 48.2996C44.0996 49.4996 43.5996 50.7996 43.5996 52.1996C43.6996 55.2996 44.9996 58.1996 47.3996 60.1996C47.8996 60.7996 48.3996 61.2996 48.9996 61.6996C49.5996 62.0996 50.3996 62.2996 51.1996 62.1996C51.7996 62.3996 52.3996 62.3996 52.9996 62.4996C54.1996 62.9996 55.4996 63.0996 56.6996 62.6996C59.3996 61.7996 61.4996 59.8996 62.5996 57.2996C63.1996 55.6996 63.2996 53.7996 62.6996 51.9996Z" fill="#7B78CC"/>
<path d="M92.4 34.3004C88.1 29.7004 83.7 25.2004 79.4 20.6004C79.3 20.5004 79.2 20.4004 79.1 20.3004C79 19.8004 78.6 19.4004 78.1 19.3004C74.6 15.6004 71.2 11.6004 67.4 8.00039C66.2 6.80039 64.8 5.80039 63.3 5.00039C61.9 4.30039 60.4 3.90039 58.8 3.90039C56 4.00039 53.3 5.10039 51.1 7.00039C47.4 10.0004 43.7 13.0004 39.9 16.0004L36.7 13.0004C36.7 12.9004 36.7 12.8004 36.7 12.7004C36.7 12.0004 36.4 11.3004 36 10.8004C35.5 10.3004 34.9 9.80039 34.3 9.50039C32.8 8.80039 31.2 8.40039 29.6 8.50039C26.7 8.60039 23.8 9.30039 21.2 10.6004C18.8 11.7004 16.5 13.1004 14.5 14.8004C13.8 15.5004 13.1 16.2004 12.4 16.9004C11.1 18.5004 9.9 20.1004 8.9 21.9004C8.4 22.8004 7.9 23.8004 7.6 24.8004C7.3 25.8004 7.1 26.8004 7 27.8004C7 28.8004 7.3 29.8004 7.8 30.7004C8.4 31.6004 9.3 32.3004 10.4 32.7004C10.8 32.9004 11.2 32.9004 11.6 32.9004C11.8 32.9004 11.9 32.9004 12.1 32.9004C12.8 34.1004 13.6 35.3004 14.5 36.3004C14.3 36.5004 14.1 36.6004 13.9 36.8004C12.2 38.3004 9.5 40.1004 7.2 42.2004C6 43.2004 4.9 44.4004 4 45.7004C3 47.0004 2.4 48.4004 2.1 50.0004C2.1 50.4004 2 50.9004 2 51.3004C2.1 53.4004 2.7 55.4004 3.6 57.2004C5.7 61.7004 8 66.0004 10.7 70.1004C12.9 73.6004 15.2 77.0004 17.8 80.3004C21.8 85.4004 26.4 90.1004 31.4 94.2004C33.2 95.8004 35.5 96.9004 37.8 97.4004C38.4 97.5004 39.1 97.6004 39.7 97.6004C42 97.5004 44.3 96.9004 46.3 95.7004C48.9 94.2004 51.4 92.5004 53.8 90.6004C61.3 84.9004 66.8 80.2004 73.6 74.1004C77.7 70.4004 81.9 66.7004 85.9 62.8004C87.7 61.0004 89.9 59.0004 91.8 56.9004C93.8 54.8004 95.5 52.4004 96.8 49.7004C97.5 48.3004 97.8 46.7004 97.8 45.1004C97.8 43.0004 97.2 41.0004 96.1 39.2004C95.1 37.4004 93.8 35.7004 92.4 34.3004ZM11.6 30.1004C11.1 29.9004 10.7 29.6004 10.4 29.2004C10.2 28.8004 10.1 28.4004 10.1 27.9004C10.1 26.9004 10.4 26.0004 10.8 25.1004C11.6 23.4004 12.5 21.8004 13.7 20.3004C14.3 19.6004 14.8 18.9004 15.3 18.3004C15.7 17.9004 16.1 17.4004 16.5 17.1004C18.3 15.6004 20.4 14.3004 22.5 13.3004C24.7 12.2004 27.2 11.6004 29.7 11.5004C30.9 11.5004 32 11.7004 33.1 12.2004C33.4 12.3004 33.7 12.5004 33.9 12.8004C33.8 13.0004 33.6 13.2004 33.4 13.3004C33 13.7004 32.5 14.0004 32 14.3004C31.4 14.6004 30.9 14.9004 30.4 15.1004C27.3 16.6004 24 17.8004 20.9 20.0004C18.4 21.8004 16.3 24.0004 14.7 26.6004C14.5 27.0004 14.2 27.4004 14 27.8004C13.6 28.4004 13.2 29.0004 12.7 29.5004C12.5 29.7004 12.3 29.8004 12.1 29.9004C12 30.0004 11.9 30.0004 11.8 30.0004L11.6 30.1004ZM14.7 31.5004C15.1 31.1004 15.5 30.6004 15.8 30.1004C16.3 29.3004 16.7 28.6004 17 28.2004C18.4 25.9004 20.3 24.0004 22.4 22.4004C25.1 20.5004 28.2 19.3004 31.5 17.8004C32.6 17.3004 33.6 16.7004 34.6 16.1004C34.8 15.9004 35 15.8004 35.2 15.6004L37.7 17.9004C30.7 23.4004 23.7 28.9004 16.9 34.6004C16 33.6004 15.3 32.6004 14.7 31.5004ZM4.9 51.3004C4.9 51.0004 4.9 50.8004 5 50.5004C5.2 49.4004 5.7 48.3004 6.4 47.4004C7.7 45.7004 9.2 44.2004 10.9 42.9004C12.6 41.5004 14.4 40.2004 15.9 39.0004C23.9 32.2004 32.1 25.8004 40.4 19.3004C40.6 19.2004 40.9 19.1004 41 18.9004C41.1 18.8004 41.1 18.8004 41.1 18.7004C45.1 15.6004 49 12.4004 52.9 9.20039L52 8.10039L53 9.30039C55.2 7.50039 57.1 6.80039 58.9 6.80039C60 6.80039 61.1 7.10039 62.1 7.60039C63.4 8.30039 64.5 9.10039 65.5 10.1004C69.1 13.6004 72.5 17.5004 76.1 21.3004C73.4 31.5004 68.2 40.8004 60.8 48.3004C60.7 48.2004 60.6 48.1004 60.5 47.9004C58.9 45.9004 56.5 44.6004 54 44.3004C53.7 44.3004 53.3 44.2004 53 44.2004C51 44.2004 49.1 44.8004 47.5 45.9004C45.9 46.9004 44.6 48.5004 43.9 50.3004C43.5 51.2004 43.4 52.2004 43.4 53.3004C43.5 55.6004 44.2 57.8004 45.6 59.6004C36.1 64.5004 25.6 67.0004 14.9 67.0004C14 67.0004 13.1 67.0004 12.2 66.9004C9.9 63.4004 8 59.8004 6.3 56.1004C5.5 54.6004 5.1 53.0004 4.9 51.3004ZM60.1 54.8004C60.1 55.5004 60 56.1004 59.8 56.8004C59.3 58.1004 58.5 59.2004 57.4 60.0004C56.3 60.8004 55.1 61.2004 53.7 61.3004H53.6C52.7 61.3004 51.7 61.1004 50.9 60.6004C50.7 60.5004 50.5 60.4004 50.2 60.2004C51.3 59.5004 52.4 58.8004 53.5 58.1004C55.7 56.6004 57.8 54.9004 59.9 53.1004C60 53.6004 60.1 54.2004 60.1 54.8004ZM47.5 57.4004C46.7 56.1004 46.2 54.7004 46.1 53.2004C46.1 52.5004 46.2 51.9004 46.4 51.3004C46.9 50.1004 47.8 49.0004 48.9 48.3004C50.1 47.5004 51.4 47.1004 52.8 47.1004C53 47.1004 53.2 47.1004 53.5 47.1004C55.3 47.3004 57 48.3004 58.1 49.7004C58.2 49.9004 58.4 50.1004 58.5 50.2004C56.4 52.2004 54.1 54.0004 51.8 55.6004C50.5 56.5004 49.3 57.3004 48 58.0004C47.9 57.9004 47.7 57.7004 47.5 57.4004ZM94.3 48.5004C93.2 50.9004 91.7 53.0004 89.9 54.9004C88 56.9004 85.9 58.8004 84.1 60.7004C80.2 64.6004 76.1 68.2004 71.9 71.9004C65 77.9004 59.7 82.6004 52.2 88.2004C50 90.0004 47.6 91.6004 45.1 93.0004C43.5 94.0004 41.7 94.5004 39.8 94.6004C39.3 94.6004 38.9 94.6004 38.4 94.5004C36.5 94.1004 34.7 93.2004 33.3 91.9004C28.4 88.0004 24 83.5004 20.2 78.5004C18 75.7004 15.9 72.8004 14 69.8004C14.3 69.8004 14.6 69.8004 14.9 69.8004C26.3 69.8004 37.5 67.1004 47.6 61.7004C48.3 62.3004 49 62.7004 49.7 63.1004C50.9 63.7004 52.3 64.1004 53.7 64.1004H53.8C55.7 64.1004 57.6 63.4004 59.1 62.3004C60.7 61.2004 61.9 59.6004 62.5 57.7004C62.8 56.8004 63 55.8004 63 54.8004C63 53.4004 62.7 52.1004 62.2 50.9004C69.8 43.4004 75.3 34.1004 78.4 23.8004C82.4 28.0004 86.3 32.2004 90.3 36.3004C91.6 37.6004 92.8 39.1004 93.8 40.6004C94.6 41.9004 95.1 43.4004 95.1 45.0004C95.1 46.2004 94.8 47.4004 94.3 48.5004Z" fill="black"/>
</g>
<defs>
<clipPath id="clip0_1815_353">
<rect width="100" height="100" fill="white"/>
</clipPath>
</defs>
</svg>
