<svg width="100" height="100" viewBox="0 0 100 100" fill="none" xmlns="http://www.w3.org/2000/svg">
<g clip-path="url(#clip0_1815_318)">
<path d="M90.1002 47.0997C87.2002 37.2997 81.8002 27.0997 72.7002 21.8997C69.7002 20.1997 66.5002 19.1997 63.1002 18.7997C61.6002 18.3997 60.1002 18.0997 58.6002 17.7997C43.2002 15.4997 23.8002 22.2997 18.3002 37.9997C17.3002 40.0997 16.6002 42.2997 16.1002 44.4997C12.1002 61.6997 17.9002 82.9997 35.0002 90.7997C35.6002 91.0997 36.3002 91.2997 37.0002 91.3997C49.8002 97.7997 65.2002 96.1997 76.3002 87.1997C82.1002 82.3997 88.3002 75.5997 90.2002 68.1997C90.4002 67.2997 90.6002 66.3997 90.7002 65.4997C92.2002 59.4997 92.0002 53.0997 90.1002 47.0997ZM75.1002 70.7997C70.8002 76.2997 65.6002 81.0997 58.7002 82.6997C52.4002 83.9997 45.7002 82.7997 40.3002 79.3997C39.6002 78.8997 38.7002 78.5997 37.9002 78.4997C27.4002 71.1997 24.4002 55.3997 29.3002 43.6997C32.0002 37.1997 37.7002 33.5997 44.4002 32.2997C51.1002 30.9997 60.8002 31.3997 67.1002 34.3997C73.0002 37.1997 75.5002 43.9997 77.0002 50.0997C78.8002 57.4997 80.0002 64.4997 75.1002 70.7997Z" fill="#FDB913"/>
<path d="M80 51.2995C78.4 46.2995 75.7 41.6995 72.3 37.7995C68.6 33.5995 63.7 30.5995 58.2 29.3995C57.8 29.2995 57.4 29.0995 57 28.9995C53 28.5995 48.9 29.1995 45.1 30.4995C40.5 32.2995 36.4 35.2995 31.9 37.2995C31.7 37.3995 31.6 37.3995 31.4 37.3995C30.8 37.7995 30.3 38.1995 29.7 38.6995C29.3 39.1995 28.8 39.6995 28.4 40.0995C28.3 40.1995 28.1 40.2995 27.9 40.2995C27.3 40.8995 26.8 41.5995 26.3 42.2995C24.6 46.4995 24.1 50.9995 24.9 55.3995C23.8 65.6995 28.6 75.6995 37.5 81.1995C47 87.0995 59.9 86.0995 69.2 80.3995C79.4 74.0995 83.8 62.7995 80 51.2995ZM51.5 60.2995C51 59.1995 50.7 57.9995 50.8 56.7995C51.1 55.8995 50.8 56.3995 51.2 56.1995C51.8 55.8995 54.3 56.0995 54.7 56.4995C55.8 57.7995 53.6 59.7995 51.5 60.2995Z" fill="#EFE7D2"/>
<path d="M29.8999 14.8004C32.4999 14.8004 35.0999 12.1004 33.4999 9.10039C31.9999 6.40039 30.5999 2.40039 26.9999 2.40039C23.4999 2.50039 20.4999 5.20039 17.8999 7.10039C15.3999 9.00039 11.4999 10.9004 10.5999 14.0004C9.99988 15.7004 10.3999 17.6004 11.5999 19.0004C11.8999 19.8004 12.3999 20.4004 12.9999 21.0004C14.0999 23.4004 17.4999 24.5004 19.2999 22.1004C19.6999 21.9004 19.9999 21.7004 20.2999 21.4004C20.5999 21.6004 20.7999 21.8004 20.8999 21.9004C21.1999 22.2004 21.5999 22.4004 21.8999 22.7004L23.9999 26.2004C26.4999 30.3004 33.0999 26.6004 30.4999 22.4004C29.9999 21.6004 29.4999 20.8004 28.9999 20.0004C28.8999 19.2004 28.5999 18.5004 28.0999 17.9004L27.5999 17.3004C28.5999 16.7004 29.2999 15.9004 29.8999 14.8004Z" fill="#7B78CC"/>
<path d="M65.4002 11.8003C63.7002 10.4003 61.3002 10.0003 59.3002 10.8003C57.2002 11.7003 55.7002 13.7003 55.6002 16.0003C55.4002 18.0003 57.5002 19.9003 59.4002 19.8003C59.6002 19.8003 59.7002 19.8003 59.9002 19.7003C60.3002 20.5003 61.1002 21.1003 62.0002 21.3003C63.3002 21.6003 64.6002 21.4003 65.8002 20.7003C66.8002 20.0003 67.6002 19.0003 67.9002 17.8003C68.3002 15.6003 67.3002 13.2003 65.4002 11.8003Z" fill="#7B78CC"/>
<path d="M13.8001 45.4008C11.8001 44.9008 9.70008 46.1008 9.20008 48.0008L7.70008 52.6008C7.20008 54.6008 8.30008 56.7008 10.3001 57.3008C12.3001 57.8008 14.4001 56.6008 14.9001 54.7008L16.4001 50.1008C16.9001 48.0008 15.8001 45.9008 13.8001 45.4008Z" fill="#7B78CC"/>
<path d="M28.3999 35.1001C27.6999 35.9001 27.0999 36.8001 26.3999 37.6001C25.8999 37.6001 25.3999 37.8001 25.1999 38.2001C22.8999 41.5001 21.1999 45.2001 19.8999 49.0001C19.2999 50.8001 21.9999 51.4001 22.5999 49.8001C22.5999 49.7001 22.6999 49.6001 22.6999 49.5001C23.2999 49.5001 23.7999 49.1001 23.9999 48.6001C24.7999 46.7001 25.5999 44.9001 26.5999 43.1001C27.4999 41.5001 28.3999 40.0001 29.3999 38.5001C30.0999 38.3001 30.4999 37.6001 30.3999 36.9001C30.3999 36.8001 30.4999 36.8001 30.4999 36.7001C31.4999 35.5001 29.3999 33.8001 28.3999 35.1001Z" fill="#FDB913"/>
<path d="M57.3002 56.0996C57.3002 55.2996 57.1002 54.4996 56.5002 53.8996C55.6002 53.0996 54.4002 52.8996 53.4002 53.2996C52.6002 53.3996 51.8002 53.6996 51.1002 54.1996C50.3002 54.5996 49.7002 55.2996 49.4002 56.0996C48.7002 57.6996 49.5002 59.5996 51.1002 60.2996C51.8002 60.5996 52.6002 60.5996 53.4002 60.3996C54.2002 60.3996 55.1002 60.0996 55.8002 59.5996C56.8002 58.8996 57.5002 57.4996 57.3002 56.0996Z" fill="#7B78CC"/>
<path d="M66.3001 20.5992C66.7001 19.1992 67.0001 17.9992 67.3001 16.6992C67.4001 16.3992 67.4001 15.9992 67.4001 15.6992C67.4001 15.2992 67.3001 14.8992 67.1001 14.5992C66.9001 14.1992 66.6001 13.8992 66.3001 13.6992C66.1001 13.5992 65.8001 13.4992 65.6001 13.3992C64.2001 12.7992 62.7001 12.3992 61.3001 12.0992C60.6001 11.8992 59.9001 11.8992 59.1001 11.7992C58.5001 11.7992 58.0001 11.8992 57.4001 11.9992C56.8001 12.1992 56.2001 12.4992 55.8001 12.8992C55.1001 13.4992 54.6001 14.3992 54.3001 15.2992C54.1001 16.0992 54.0001 16.8992 54.0001 17.7992C54.0001 17.9992 54.0001 18.1992 54.0001 18.3992C53.8001 18.3992 53.6001 18.3992 53.4001 18.3992C46.3001 18.3992 39.4001 20.2992 33.3001 23.8992C32.0001 21.7992 30.7001 19.7992 29.4001 17.7992C30.2001 17.1992 31.0001 16.5992 31.7001 15.8992C32.0001 15.5992 32.3001 15.1992 32.6001 14.7992C32.9001 14.2992 33.1001 13.6992 33.1001 13.1992C33.1001 12.9992 33.1001 12.8992 33.1001 12.6992C33.0001 12.1992 32.8001 11.6992 32.5001 11.2992C31.0001 8.99922 29.3001 6.89922 27.3001 5.09922C27.1001 4.89922 26.9001 4.79922 26.7001 4.59922C26.4001 4.39922 26.0001 4.19922 25.6001 4.19922H25.4001C25.0001 4.19922 24.7001 4.29922 24.3001 4.39922C24.1001 4.49922 23.9001 4.59922 23.7001 4.69922C20.3001 6.79922 17.0001 8.99922 13.8001 11.3992C12.8001 12.0992 11.8001 12.8992 10.9001 13.6992C9.8001 14.6992 9.0001 15.8992 8.6001 17.2992C8.5001 17.5992 8.5001 17.9992 8.5001 18.2992C8.5001 18.8992 8.6001 19.5992 8.9001 20.0992C9.2001 20.8992 9.7001 21.5992 10.2001 22.1992C10.7001 22.7992 11.2001 23.2992 11.5001 23.7992C12.0001 24.4992 12.6001 24.9992 13.4001 25.3992C13.9001 25.6992 14.5001 25.7992 15.2001 25.7992C16.0001 25.7992 16.8001 25.5992 17.5001 25.2992C18.1001 24.9992 18.7001 24.6992 19.3001 24.2992L20.4001 23.5992L25.9001 29.7992C21.0001 34.5992 17.5001 40.6992 15.7001 47.3992C14.4001 46.7992 13.0001 46.4992 11.5001 46.4992H11.3001C10.9001 46.4992 10.4001 46.5992 10.0001 46.7992C9.5001 46.9992 9.2001 47.2992 9.0001 47.6992C8.9001 47.8992 8.8001 48.1992 8.7001 48.4992C8.1001 50.1992 7.7001 51.9992 7.6001 53.8992C7.6001 54.7992 7.8001 55.7992 8.1001 56.6992C8.2001 57.0992 8.5001 57.4992 8.8001 57.7992C9.0001 57.9992 9.3001 58.1992 9.6001 58.2992C9.8001 58.3992 10.0001 58.3992 10.2001 58.4992C11.6001 58.8992 13.0001 58.8992 14.5001 58.5992C14.9001 67.2992 18.0001 75.5992 23.5001 82.3992C29.1001 89.5992 37.0001 94.5992 45.8001 96.6992C48.5001 97.2992 51.2001 97.5992 53.9001 97.5992C62.0001 97.5992 69.9001 95.0992 76.5001 90.3992C83.4001 85.5992 88.5001 78.5992 91.0001 70.4992C92.1001 66.7992 92.7001 62.8992 92.7001 58.9992C92.7001 50.5992 90.0001 42.3992 85.2001 35.4992C80.5001 28.6992 73.9001 23.4992 66.3001 20.5992ZM56.9001 18.4992C56.9001 18.2992 56.9001 17.9992 56.9001 17.7992C56.9001 17.1992 56.9001 16.5992 57.1001 16.0992C57.2001 15.6992 57.4001 15.3992 57.7001 15.0992C57.9001 14.9992 58.1001 14.8992 58.3001 14.7992C58.6001 14.6992 58.9001 14.6992 59.2001 14.6992C59.7001 14.6992 60.3001 14.7992 60.8001 14.8992C62.1001 15.1992 63.4001 15.5992 64.7001 15.9992C64.4001 17.1992 64.1001 18.4992 63.8001 19.6992C61.4001 19.1992 59.2001 18.6992 56.9001 18.4992ZM17.6001 21.8992C17.1001 22.1992 16.7001 22.4992 16.2001 22.6992C15.8001 22.8992 15.4001 22.9992 15.0001 22.9992C14.8001 22.9992 14.6001 22.9992 14.5001 22.8992C14.1001 22.6992 13.8001 22.3992 13.6001 21.9992C13.0001 21.2992 12.4001 20.5992 11.9001 19.9992C11.7001 19.6992 11.5001 19.3992 11.4001 19.0992C11.3001 18.8992 11.2001 18.5992 11.2001 18.3992C11.2001 18.2992 11.2001 18.1992 11.2001 18.0992C11.5001 17.1992 12.0001 16.4992 12.7001 15.8992C13.5001 15.0992 14.4001 14.3992 15.3001 13.7992C18.5001 11.4992 21.7001 9.29922 25.0001 7.29922C25.1001 7.29922 25.1001 7.19922 25.2001 7.19922L25.3001 7.29922C27.1001 8.99922 28.7001 10.8992 30.0001 12.8992C30.1001 12.9992 30.1001 13.0992 30.2001 13.1992V13.2992C30.2001 13.3992 30.1001 13.4992 30.1001 13.4992C30.0001 13.6992 29.9001 13.7992 29.7001 13.9992C28.5001 15.0992 27.1001 16.0992 25.6001 16.9992L17.6001 21.8992ZM27.1001 19.2992L31.0001 25.3992C30.5001 25.6992 30.1001 26.0992 29.6001 26.3992C29.0001 26.8992 28.4001 27.3992 27.8001 27.8992L22.7001 22.0992L27.1001 19.2992ZM13.8001 55.6992C12.8001 55.8992 11.8001 55.8992 10.8001 55.5992H10.7001C10.5001 54.9992 10.4001 54.3992 10.4001 53.7992C10.5001 52.2992 10.8001 50.6992 11.4001 49.2992C12.5001 49.2992 13.6001 49.5992 14.6001 49.9992C14.7001 49.9992 14.8001 50.0992 15.0001 50.0992C14.7001 51.8992 14.5001 53.7992 14.4001 55.5992C14.2001 55.6992 14.0001 55.6992 13.8001 55.6992ZM88.1001 69.4992C85.8001 76.9992 81.1001 83.3992 74.6001 87.8992C68.5001 92.1992 61.1001 94.5992 53.6001 94.5992C51.1001 94.5992 48.6001 94.2992 46.1001 93.7992C37.9001 91.8992 30.6001 87.1992 25.4001 80.4992C20.0001 73.7992 17.1001 65.4992 17.0001 56.8992C17.0001 54.0992 17.3001 51.3992 18.0001 48.6992C19.9001 40.6992 24.6001 33.4992 31.2001 28.5992C37.6001 23.7992 45.4001 21.0992 53.4001 21.0992C57.3001 21.0992 61.1001 21.6992 64.8001 22.9992C72.1001 25.5992 78.3001 30.4992 82.7001 36.8992C87.2001 43.2992 89.6001 50.9992 89.7001 58.7992C89.7001 62.4992 89.2001 66.0992 88.1001 69.4992Z" fill="black"/>
<path d="M53.6 28.6002C48.9 28.6002 44.2 29.6002 39.9 31.5002C35.8 33.3002 32.1 35.9002 29.1 39.3002C27.6 41.0002 26.4 42.9002 25.4 44.9002C23.6 48.4002 22.6 52.2002 22.5 56.1002C22.5 56.4002 22.5 56.6002 22.5 56.9002C22.6 63.3002 24.9 69.5002 28.9 74.4002C32.7 79.3002 37.8 83.0002 43.7 85.2002C47.3 86.5002 51.2 87.2002 55.1 87.2002C59.4 87.2002 63.7 86.3002 67.7 84.6002C72 82.7002 75.6 79.7002 78.3 75.8002C81.5 71.1002 83.2 65.4002 83.2 59.7002C83.2 51.0002 79.7 42.6002 73.5 36.5002C68.1 31.3002 61 28.5002 53.6 28.6002ZM75.8 74.1002C73.4 77.5002 70.2 80.2002 66.4 81.9002C62.8 83.5002 58.9 84.3002 54.9 84.3002C51.4 84.3002 47.8 83.7002 44.5 82.5002C39.2 80.5002 34.5 77.1002 31 72.6002C27.4 68.1002 25.3 62.6002 25.2 56.8002C25.2 56.6002 25.2 56.4002 25.2 56.1002C25.3 52.6002 26.2 49.2002 27.8 46.1002C28.7 44.3002 29.8 42.6002 31.1 41.1002C33.8 38.1002 37.2 35.6002 40.9 34.0002C44.9 32.3002 49.1 31.3002 53.4 31.3002C60 31.2002 66.4 33.7002 71.2 38.3002C76.8 43.9002 80 51.6002 80 59.5002C80.2 64.7002 78.7 69.8002 75.8 74.1002Z" fill="black"/>
<path d="M61.7001 36.2007C60.9001 36.0007 60.2001 36.5007 60.0001 37.2007C59.0001 41.0007 57.7001 44.7007 56.2001 48.3007C55.8001 49.3007 55.4001 50.3007 55.0001 51.2007C54.8001 51.1007 54.5001 51.1007 54.2001 51.1007H54.0001C53.2001 51.2007 52.4001 51.5007 51.7001 52.0007C50.7001 52.7007 49.9001 53.6007 49.3001 54.7007C49.1001 55.1007 48.9001 55.6007 48.8001 56.1007C45.3001 54.8007 41.7001 53.8007 38.1001 53.0007C37.3001 52.8007 36.6001 53.3007 36.4001 54.1007C36.2001 54.9007 36.7001 55.6007 37.5001 55.8007C41.1001 56.6007 44.6001 57.7007 48.0001 58.9007C48.2001 59.0007 48.3001 59.0007 48.5001 59.0007C48.5001 59.2007 48.5001 59.3007 48.6001 59.5007C48.8001 60.3007 49.1001 61.1007 49.7001 61.8007C50.3001 62.4007 51.0001 62.9007 51.7001 63.2007C52.3001 63.4007 52.9001 63.5007 53.5001 63.5007C54.5001 63.5007 55.4001 63.3007 56.3001 62.8007C57.3001 62.3007 58.1001 61.5007 58.7001 60.5007C59.3001 59.5007 59.6001 58.4007 59.6001 57.3007C59.6001 57.2007 59.6001 57.0007 59.6001 56.9007C59.5001 55.8007 59.1001 54.7007 58.5001 53.8007C58.2001 53.4007 57.9001 53.1007 57.5001 52.7007L58.7001 49.5007C60.3001 45.8007 61.6001 41.9007 62.6001 38.0007C62.9001 37.2007 62.5001 36.4007 61.7001 36.2007ZM56.4001 58.8007C56.1001 59.3007 55.6001 59.8007 55.1001 60.1007C54.6001 60.3007 54.1001 60.5007 53.6001 60.5007C53.3001 60.5007 53.0001 60.5007 52.8001 60.4007C52.5001 60.3007 52.2001 60.1007 51.9001 59.8007C51.7001 59.6007 51.5001 59.3007 51.5001 58.9007L50.0001 59.1007L51.4001 58.8007C51.4001 58.6007 51.3001 58.3007 51.3001 58.1007C51.3001 57.4007 51.5001 56.6007 51.8001 56.0007C52.1001 55.3007 52.6001 54.8007 53.2001 54.4007C53.4001 54.2007 53.7001 54.1007 53.9001 54.1007C54.0001 54.9007 54.6001 55.5007 55.4001 55.4007C55.6001 55.4007 55.8001 55.3007 56.0001 55.2007C56.0001 55.2007 56.0001 55.3007 56.1001 55.3007C56.4001 55.8007 56.7001 56.3007 56.7001 56.9007V57.1007C56.9001 57.7007 56.7001 58.3007 56.4001 58.8007Z" fill="black"/>
</g>
<defs>
<clipPath id="clip0_1815_318">
<rect width="100" height="100" fill="white"/>
</clipPath>
</defs>
</svg>
